<svg width="32" height="32" viewBox="0 0 32 32" fill="none" xmlns="http://www.w3.org/2000/svg">
<path d="M29.2188 27.55C26.22 26.0938 24.5 22.9775 24.5 19V16.84C24.5001 16.5398 24.41 16.2465 24.2416 15.998C24.0731 15.7496 23.8339 15.5573 23.555 15.4463L20.4438 14.2175C20.0753 14.0703 19.7802 13.7832 19.623 13.4189C19.4658 13.0546 19.4593 12.6428 19.605 12.2738L22.2713 5.64877C22.5049 5.09485 22.5659 4.48327 22.4462 3.89412C22.3264 3.30498 22.0316 2.76571 21.6003 2.34693C21.1689 1.92815 20.6212 1.64938 20.0287 1.54711C19.4363 1.44484 18.8268 1.52384 18.28 1.77377C17.5649 2.09957 17.0009 2.68556 16.7025 3.41252L14.0775 10.05C14.0049 10.2337 13.8967 10.4013 13.7592 10.5431C13.6217 10.6849 13.4575 10.7981 13.276 10.8763C13.0946 10.9545 12.8996 10.996 12.702 10.9986C12.5045 11.0012 12.3084 10.9647 12.125 10.8913L8.95377 9.60502C8.67941 9.49558 8.37883 9.46958 8.08975 9.53029C7.80066 9.591 7.53594 9.73571 7.32877 9.94627C4.78752 12.5563 3.50002 15.6025 3.50002 19C3.49358 22.485 4.8413 25.8361 7.25877 28.3463C7.30608 28.3956 7.36298 28.4346 7.42597 28.4611C7.48897 28.4875 7.55671 28.5008 7.62502 28.5H29C29.1133 28.5002 29.2232 28.4619 29.3119 28.3915C29.4005 28.321 29.4627 28.2226 29.4881 28.1122C29.5135 28.0019 29.5007 27.8861 29.4518 27.784C29.4028 27.6819 29.3207 27.5994 29.2188 27.55ZM8.04252 10.6438C8.11096 10.574 8.19862 10.5261 8.29434 10.5063C8.39006 10.4865 8.4895 10.4956 8.58002 10.5325L11.75 11.8188C12.0553 11.9406 12.3816 12.0009 12.7103 11.9965C13.0389 11.992 13.3635 11.9228 13.6653 11.7927C13.9672 11.6627 14.2405 11.4744 14.4695 11.2386C14.6985 11.0029 14.8788 10.7243 15 10.4188L17.625 3.79377C18.0488 2.77377 19.2013 2.25002 20.1975 2.62502C20.4499 2.71886 20.6808 2.8627 20.8763 3.04793C21.0717 3.23315 21.2278 3.45594 21.335 3.70294C21.4423 3.94994 21.4986 4.21606 21.5005 4.48534C21.5025 4.75462 21.45 5.02151 21.3463 5.27002L18.6763 11.9025C18.5544 12.2077 18.4939 12.5338 18.4982 12.8624C18.5025 13.1909 18.5715 13.5154 18.7013 13.8172C18.8311 14.1191 19.0191 14.3923 19.2546 14.6215C19.4901 14.8506 19.7685 15.0311 20.0738 15.1525L23.1863 16.3813C23.2791 16.4185 23.3586 16.4827 23.4145 16.5656C23.4704 16.6485 23.5002 16.7463 23.5 16.8463V19C23.5 19.295 23.51 19.5863 23.5275 19.875L6.21502 12.95C6.7406 12.1186 7.35322 11.3455 8.04252 10.6438ZM14.195 27.5C12.5597 25.9899 11.4014 24.0348 10.8625 21.875C10.8461 21.8114 10.8173 21.7517 10.7778 21.6992C10.7383 21.6467 10.6888 21.6025 10.6323 21.5691C10.5757 21.5358 10.5131 21.5139 10.448 21.5047C10.383 21.4955 10.3168 21.4992 10.2531 21.5156C10.1895 21.5321 10.1298 21.5608 10.0773 21.6004C10.0248 21.6399 9.98063 21.6893 9.94726 21.7459C9.91388 21.8025 9.89198 21.8651 9.88281 21.9301C9.87363 21.9952 9.87736 22.0614 9.89377 22.125C10.3982 24.1272 11.3897 25.9736 12.78 27.5H7.83502C5.68592 25.192 4.49384 22.1537 4.50002 19C4.48312 17.2023 4.90035 15.427 5.71627 13.825L23.6413 21C24.0438 23.75 25.295 26.0113 27.2413 27.5H14.195Z" fill="#343330"/>
</svg>
