<svg width="30" height="23" viewBox="0 0 30 23" fill="none" xmlns="http://www.w3.org/2000/svg">
<path d="M26 7.1V5C26 3.67392 25.4732 2.40215 24.5355 1.46447C23.5979 0.526784 22.3261 0 21 0H9.00001C7.67393 0 6.40216 0.526784 5.46447 1.46447C4.52679 2.40215 4.00001 3.67392 4.00001 5V7.1C2.86972 7.32952 1.85353 7.94273 1.12363 8.83574C0.393727 9.72875 -0.00500488 10.8466 -0.00500488 12C-0.00500488 13.1534 0.393727 14.2712 1.12363 15.1643C1.85353 16.0573 2.86972 16.6705 4.00001 16.9V21C4.00001 21.5304 4.21072 22.0391 4.58579 22.4142C4.96087 22.7893 5.46957 23 6.00001 23H24C24.5304 23 25.0391 22.7893 25.4142 22.4142C25.7893 22.0391 26 21.5304 26 21V16.9C27.1303 16.6705 28.1465 16.0573 28.8764 15.1643C29.6063 14.2712 30.005 13.1534 30.005 12C30.005 10.8466 29.6063 9.72875 28.8764 8.83574C28.1465 7.94273 27.1303 7.32952 26 7.1ZM9.00001 2H21C21.7957 2 22.5587 2.31607 23.1213 2.87868C23.6839 3.44129 24 4.20435 24 5V7.1C22.8714 7.33205 21.8573 7.94613 21.1287 8.8387C20.4 9.73128 20.0014 10.8478 20 12H10C9.9986 10.8478 9.59998 9.73128 8.87135 8.8387C8.14271 7.94613 7.12862 7.33205 6.00001 7.1V5C6.00001 4.20435 6.31608 3.44129 6.87869 2.87868C7.4413 2.31607 8.20436 2 9.00001 2ZM25.0488 15H25C24.7348 15 24.4804 15.1054 24.2929 15.2929C24.1054 15.4804 24 15.7348 24 16V21H6.00001V16C6.00001 15.7348 5.89465 15.4804 5.70711 15.2929C5.51958 15.1054 5.26522 15 5.00001 15H4.95126C4.36008 14.9904 3.78493 14.8063 3.29804 14.4709C2.81115 14.1355 2.43423 13.6636 2.21462 13.1147C1.99501 12.5657 1.94251 11.9641 2.06372 11.3854C2.18492 10.8067 2.47442 10.2767 2.89585 9.86205C3.31729 9.44735 3.85186 9.16643 4.43244 9.05457C5.01301 8.94272 5.61369 9.0049 6.15903 9.23333C6.70438 9.46176 7.17007 9.84623 7.49761 10.3385C7.82514 10.8307 7.99993 11.4087 8.00001 12V17C8.00001 17.2652 8.10536 17.5196 8.2929 17.7071C8.48044 17.8946 8.73479 18 9.00001 18C9.26522 18 9.51958 17.8946 9.70711 17.7071C9.89465 17.5196 10 17.2652 10 17V14H20V17C20 17.2652 20.1054 17.5196 20.2929 17.7071C20.4804 17.8946 20.7348 18 21 18C21.2652 18 21.5196 17.8946 21.7071 17.7071C21.8947 17.5196 22 17.2652 22 17V12C22.0001 11.4087 22.1749 10.8307 22.5024 10.3385C22.83 9.84623 23.2956 9.46176 23.841 9.23333C24.3863 9.0049 24.987 8.94272 25.5676 9.05457C26.1482 9.16643 26.6827 9.44735 27.1042 9.86205C27.5256 10.2767 27.8151 10.8067 27.9363 11.3854C28.0575 11.9641 28.005 12.5657 27.7854 13.1147C27.5658 13.6636 27.1889 14.1355 26.702 14.4709C26.2151 14.8063 25.6399 14.9904 25.0488 15Z" fill="#0076A3"/>
</svg>
